<mxfile host="65bd71144e">
    <diagram id="AndmlG8OXz59sX7ShXyj" name="Page-1">
        <mxGraphModel dx="1002" dy="571" grid="1" gridSize="10" guides="1" tooltips="1" connect="1" arrows="1" fold="1" page="1" pageScale="2" pageWidth="850" pageHeight="1100" background="none" math="0" shadow="0">
            <root>
                <mxCell id="0"/>
                <mxCell id="1" parent="0"/>
                <mxCell id="8" value="deur x positie&amp;nbsp; := 0&amp;nbsp;" style="rounded=0;whiteSpace=wrap;html=1;align=left;fontSize=11;" vertex="1" parent="1">
                    <mxGeometry x="50" y="10" width="280" height="40" as="geometry"/>
                </mxCell>
                <mxCell id="9" value="deur y positie := 0" style="rounded=0;whiteSpace=wrap;html=1;align=left;fontSize=11;" vertex="1" parent="1">
                    <mxGeometry x="50" y="50" width="280" height="40" as="geometry"/>
                </mxCell>
                <mxCell id="10" value="x positie van persoon := een bewerking die de x positie in cm schat t.o.v. het midden van de studeerkamerdeur, waarbij rechts van de deur + is en links van de deur -" style="rounded=0;whiteSpace=wrap;html=1;align=left;fontSize=11;" vertex="1" parent="1">
                    <mxGeometry x="50" y="130" width="280" height="40" as="geometry"/>
                </mxCell>
                <mxCell id="12" value="bepaalXPositiePersoon(herinneringen van persoon)" style="text;html=1;align=left;verticalAlign=middle;resizable=0;points=[];autosize=1;strokeColor=none;fillColor=none;fontSize=11;" vertex="1" parent="1">
                    <mxGeometry x="50" y="100" width="280" height="30" as="geometry"/>
                </mxCell>
                <mxCell id="17" value="&lt;br style=&quot;font-size: 11px;&quot;&gt;&lt;span style=&quot;color: rgb(240, 240, 240); font-family: Helvetica; font-size: 11px; font-style: normal; font-variant-ligatures: normal; font-variant-caps: normal; font-weight: 400; letter-spacing: normal; orphans: 2; text-align: center; text-indent: 0px; text-transform: none; widows: 2; word-spacing: 0px; -webkit-text-stroke-width: 0px; background-color: rgb(42, 37, 47); text-decoration-thickness: initial; text-decoration-style: initial; text-decoration-color: initial; float: none; display: inline !important;&quot;&gt;Herinneringen van persoon is een associatief array die herinneringen bevat over de positie in de kamer, die de persoon opdeed voordat die de ogen sluitte.&lt;/span&gt;&lt;br style=&quot;font-size: 11px;&quot;&gt;" style="text;html=1;strokeColor=none;fillColor=none;align=center;verticalAlign=middle;whiteSpace=wrap;rounded=0;fontSize=11;" vertex="1" parent="1">
                    <mxGeometry x="370" y="50" width="280" height="100" as="geometry"/>
                </mxCell>
                <mxCell id="21" value="return x positie van persoon" style="rounded=0;whiteSpace=wrap;html=1;align=left;fontSize=11;" vertex="1" parent="1">
                    <mxGeometry x="50" y="170" width="280" height="40" as="geometry"/>
                </mxCell>
                <mxCell id="22" value="y positie van persoon := een bewerking die de y positie in cm schat t.o.v. van de studeerkamerdeur. De deur == 0 (noordzijde kamer) en alles wat ten zuiden van die muur is, is - (negatief). De afstand wordt geschat loodrecht op de muur waar de deur onderdeel van is." style="rounded=0;whiteSpace=wrap;html=1;align=left;fontSize=11;" vertex="1" parent="1">
                    <mxGeometry x="50" y="270" width="280" height="70" as="geometry"/>
                </mxCell>
                <mxCell id="23" value="bepaalYPositiePersoon(herinneringen van persoon)" style="text;html=1;align=left;verticalAlign=middle;resizable=0;points=[];autosize=1;strokeColor=none;fillColor=none;fontSize=11;" vertex="1" parent="1">
                    <mxGeometry x="50" y="240" width="280" height="30" as="geometry"/>
                </mxCell>
                <mxCell id="24" value="return y positie van persoon" style="rounded=0;whiteSpace=wrap;html=1;align=left;fontSize=11;" vertex="1" parent="1">
                    <mxGeometry x="50" y="340" width="280" height="40" as="geometry"/>
                </mxCell>
                <mxCell id="25" value="oriëntatie van persoon := een bewerking die de oriëntatie in graden schat t.o.v. de muur waar de deur onderdeel van is." style="rounded=0;whiteSpace=wrap;html=1;align=left;fontSize=11;" vertex="1" parent="1">
                    <mxGeometry x="50" y="430" width="280" height="40" as="geometry"/>
                </mxCell>
                <mxCell id="26" value="bepaalOriëntatiePersoon(herinneringen van persoon)" style="text;html=1;align=left;verticalAlign=middle;resizable=0;points=[];autosize=1;strokeColor=none;fillColor=none;fontSize=11;" vertex="1" parent="1">
                    <mxGeometry x="50" y="400" width="280" height="30" as="geometry"/>
                </mxCell>
                <mxCell id="27" value="return oriëntatie van persoon" style="rounded=0;whiteSpace=wrap;html=1;align=left;fontSize=11;" vertex="1" parent="1">
                    <mxGeometry x="50" y="470" width="280" height="40" as="geometry"/>
                </mxCell>
                <mxCell id="28" value="persoon x positie := bepaalXPositiePersoon(herinneringen van persoon)" style="rounded=0;whiteSpace=wrap;html=1;align=left;fontSize=11;" vertex="1" parent="1">
                    <mxGeometry x="50" y="670" width="280" height="40" as="geometry"/>
                </mxCell>
                <mxCell id="31" value="persoon y positie := bepaalYPositiePersoon(herinneringen van persoon)" style="rounded=0;whiteSpace=wrap;html=1;align=left;fontSize=11;" vertex="1" parent="1">
                    <mxGeometry x="50" y="710" width="280" height="40" as="geometry"/>
                </mxCell>
                <mxCell id="32" value="persoon oriëntatie := bepaalOriëntatiePersoon(herinneringen van persoon)" style="rounded=0;whiteSpace=wrap;html=1;align=left;fontSize=11;" vertex="1" parent="1">
                    <mxGeometry x="50" y="750" width="280" height="40" as="geometry"/>
                </mxCell>
                <mxCell id="33" value="" style="rounded=0;whiteSpace=wrap;html=1;align=left;fontSize=11;" vertex="1" parent="1">
                    <mxGeometry x="50" y="830" width="280" height="120" as="geometry"/>
                </mxCell>
                <mxCell id="38" value="return persoon staat" style="rounded=0;whiteSpace=wrap;html=1;align=left;fontSize=11;" vertex="1" parent="1">
                    <mxGeometry x="50" y="605" width="280" height="40" as="geometry"/>
                </mxCell>
                <mxCell id="39" value="bepaalOfPersoonStaat(perceptie van persoon)" style="text;html=1;align=left;verticalAlign=middle;resizable=0;points=[];autosize=1;strokeColor=none;fillColor=none;fontSize=11;" vertex="1" parent="1">
                    <mxGeometry x="50" y="535" width="250" height="30" as="geometry"/>
                </mxCell>
                <mxCell id="40" value="persoon staat := een bewerking die bepaalt of de persoon staat" style="rounded=0;whiteSpace=wrap;html=1;align=left;fontSize=11;" vertex="1" parent="1">
                    <mxGeometry x="50" y="565" width="280" height="40" as="geometry"/>
                </mxCell>
                <mxCell id="41" value="Persoon staat is een Boolean." style="text;html=1;align=center;verticalAlign=middle;resizable=0;points=[];autosize=1;strokeColor=none;fillColor=none;fontSize=11;" vertex="1" parent="1">
                    <mxGeometry x="380" y="575" width="170" height="30" as="geometry"/>
                </mxCell>
                <mxCell id="42" value="persoon staat:= bepaal OfPersoonStaat()" style="rounded=0;whiteSpace=wrap;html=1;align=left;fontSize=11;" vertex="1" parent="1">
                    <mxGeometry x="50" y="790" width="280" height="40" as="geometry"/>
                </mxCell>
                <mxCell id="43" value="" style="rounded=0;whiteSpace=wrap;html=1;align=left;fontSize=11;" vertex="1" parent="1">
                    <mxGeometry x="50" y="830" width="280" height="120" as="geometry"/>
                </mxCell>
                <mxCell id="34" value="persoon staat?" style="triangle;whiteSpace=wrap;html=1;fontSize=11;rotation=90;horizontal=0;" vertex="1" parent="1">
                    <mxGeometry x="160" y="720" width="60" height="280" as="geometry"/>
                </mxCell>
                <mxCell id="45" style="edgeStyle=none;html=1;exitX=0;exitY=0.5;exitDx=0;exitDy=0;entryX=1;entryY=0.5;entryDx=0;entryDy=0;fontSize=11;endArrow=none;endFill=0;" edge="1" parent="1" source="43" target="43">
                    <mxGeometry relative="1" as="geometry"/>
                </mxCell>
                <mxCell id="47" value="nee" style="text;html=1;strokeColor=none;fillColor=none;align=center;verticalAlign=middle;whiteSpace=wrap;rounded=0;fontSize=11;" vertex="1" parent="1">
                    <mxGeometry x="260" y="850" width="60" height="30" as="geometry"/>
                </mxCell>
                <mxCell id="48" value="ja" style="text;html=1;strokeColor=none;fillColor=none;align=center;verticalAlign=middle;whiteSpace=wrap;rounded=0;fontSize=11;" vertex="1" parent="1">
                    <mxGeometry x="60" y="850" width="60" height="30" as="geometry"/>
                </mxCell>
                <mxCell id="50" value="-" style="rounded=0;whiteSpace=wrap;html=1;fontSize=11;" vertex="1" parent="1">
                    <mxGeometry x="50" y="890" width="140" height="60" as="geometry"/>
                </mxCell>
                <mxCell id="51" value="sta op" style="rounded=0;whiteSpace=wrap;html=1;fontSize=11;" vertex="1" parent="1">
                    <mxGeometry x="190" y="890" width="140" height="60" as="geometry"/>
                </mxCell>
                <mxCell id="53" value="" style="rounded=0;whiteSpace=wrap;html=1;align=left;fontSize=11;" vertex="1" parent="1">
                    <mxGeometry x="50" y="1010" width="280" height="120" as="geometry"/>
                </mxCell>
                <mxCell id="54" value="x positie &amp;gt; 0?" style="triangle;whiteSpace=wrap;html=1;fontSize=11;rotation=90;horizontal=0;" vertex="1" parent="1">
                    <mxGeometry x="160" y="900" width="60" height="280" as="geometry"/>
                </mxCell>
                <mxCell id="57" value="loop abs(x positie) naar links" style="rounded=0;whiteSpace=wrap;html=1;fontSize=11;" vertex="1" parent="1">
                    <mxGeometry x="50" y="1070" width="140" height="60" as="geometry"/>
                </mxCell>
                <mxCell id="58" value="loop abs(x positie) naar rechts" style="rounded=0;whiteSpace=wrap;html=1;fontSize=11;" vertex="1" parent="1">
                    <mxGeometry x="190" y="1070" width="140" height="60" as="geometry"/>
                </mxCell>
                <mxCell id="68" value="draai persoon oriëntatie graden tegen de klok in" style="rounded=0;whiteSpace=wrap;html=1;fontSize=11;align=left;" vertex="1" parent="1">
                    <mxGeometry x="50" y="950" width="280" height="60" as="geometry"/>
                </mxCell>
                <mxCell id="70" value="loop abs(persoon y positie) cm naar voren" style="rounded=0;whiteSpace=wrap;html=1;fontSize=11;align=left;" vertex="1" parent="1">
                    <mxGeometry x="50" y="1130" width="280" height="60" as="geometry"/>
                </mxCell>
                <mxCell id="71" value="ja" style="text;html=1;strokeColor=none;fillColor=none;align=center;verticalAlign=middle;whiteSpace=wrap;rounded=0;fontSize=11;" vertex="1" parent="1">
                    <mxGeometry x="50" y="1040" width="60" height="30" as="geometry"/>
                </mxCell>
                <mxCell id="72" value="nee" style="text;html=1;strokeColor=none;fillColor=none;align=center;verticalAlign=middle;whiteSpace=wrap;rounded=0;fontSize=11;" vertex="1" parent="1">
                    <mxGeometry x="260" y="1040" width="60" height="30" as="geometry"/>
                </mxCell>
            </root>
        </mxGraphModel>
    </diagram>
</mxfile>